<?xml version="1.0" encoding="UTF-8"?>
<svg id="Layer_2" data-name="Layer 2" xmlns="http://www.w3.org/2000/svg" viewBox="0 0 42.52 14.17">
  <defs>
    <style>
      .cls-1 {
        fill: #fff;
      }

      .cls-2 {
        fill: #121212;
      }
    </style>
  </defs>
  <g id="Layer_1-2" data-name="Layer 1">
    <g>
      <rect class="cls-2" x="0" y="0" width="42.52" height="14.17" rx="3.66" ry="3.66"/>
      <g>
        <path class="cls-1" d="M37.01,7.79l-.58,1.4h-.02l-.6-1.4h-.55l.9,1.95-.51,1.09h.53l1.39-3.04h-.57.02ZM32.94,6.63h-.5v3.22h.5v-3.22h0ZM31.04,6.63h-1.21v3.22h.5v-1.22h.7c.59.02,1.09-.42,1.12-.99h0c-.01-.58-.5-1.03-1.09-1.01h-.01ZM31.06,8.18h-.72v-1.1h.72c.32,0,.58.25.58.55s-.26.55-.58.55h0ZM34.18,7.72c-.37-.02-.73.18-.9.49l.45.19c.09-.16.27-.25.46-.23.26-.02.5.16.53.42h0v.03c-.16-.08-.34-.13-.53-.13-.48,0-.97.25-.97.73,0,.43.39.71.84.71.26.01.5-.1.65-.31h.02v.25h.49v-1.24c0-.57-.45-.89-1.03-.89h0v-.02h-.01ZM34.12,9.49c-.16,0-.39-.08-.39-.27,0-.25.28-.34.54-.34.16,0,.32.03.46.1-.04.29-.3.51-.6.51h0ZM15.89,9.92c-1,0-1.81-.75-1.83-1.7.01-.95.83-1.71,1.83-1.7.46,0,.91.17,1.24.47l-.35.32c-.24-.22-.56-.34-.89-.34-.72,0-1.3.55-1.3,1.24s.58,1.24,1.3,1.24c.34.01.67-.11.91-.34.15-.16.25-.37.26-.58h-1.17v-.45h1.65c.02.09.02.2.02.29.01.41-.13.8-.43,1.1-.33.31-.79.49-1.26.46h.01ZM20.13,8.83c.02.59-.46,1.11-1.09,1.13-.63.02-1.16-.44-1.19-1.04v-.09c-.02-.59.46-1.11,1.09-1.13s1.16.44,1.19,1.04v.09h0ZM19.62,8.83c.03-.33-.23-.64-.58-.67s-.67.22-.7.55v.11c-.03.33.23.64.58.67.35.03.67-.22.7-.55v-.11h0ZM22.68,8.83c0,.59-.51,1.09-1.14,1.09s-1.14-.49-1.14-1.09.51-1.09,1.14-1.09,1.14.49,1.14,1.09h0ZM22.18,8.83c.03-.33-.23-.64-.58-.67s-.67.22-.7.55v.11c-.03.33.23.64.58.67.35.03.67-.22.7-.55v-.11h0ZM25.17,7.8v1.97c0,.8-.5,1.14-1.11,1.14-.45,0-.85-.25-1.03-.64l.44-.19c.09.23.32.39.58.39.38,0,.62-.23.62-.65v-.16h-.02c-.15.17-.37.25-.6.25-.63,0-1.15-.49-1.15-1.1s.51-1.1,1.15-1.1c.23,0,.45.08.61.25h.02v-.19h.49-.01ZM24.73,8.83c.03-.34-.24-.64-.6-.67h-.02c-.37.01-.66.3-.65.66h0c-.02.35.26.66.63.67h.01c.35-.01.63-.3.62-.64v-.02h0ZM26.07,6.64v3.22h-.5v-3.22h.5ZM28.07,9.18l.39.25c-.22.3-.58.49-.96.49-.61,0-1.13-.46-1.14-1.04v-.05c-.05-.55.38-1.04.96-1.1.49-.04.95.25,1.11.7l.05.13-1.54.61c.1.21.32.34.56.33.23,0,.44-.11.56-.3h.01ZM26.86,8.8l1.04-.41c-.08-.16-.25-.24-.43-.23-.35.01-.62.29-.6.63h0s-.01.01-.01.01h0Z"/>
        <path class="cls-1" d="M9.98,8.58l-3.68,1.99c-.07.04-.13.06-.21.08-.47.13-.96-.13-1.1-.58l.16-.16,3.13-2.93,1.54,1.43.16.17Z"/>
        <path class="cls-1" d="M11.58,7.72l-1.58.86-.18-.17-1.44-1.51v-.02s1.61-1.49,1.61-1.49l1.59.86h0c.16.08.29.21.36.36.23.4.07.9-.36,1.11Z"/>
        <path class="cls-1" d="M8.2,6.87l-3.05,3.04-.16.15c-.03-.06-.03-.14-.03-.21v-5.77c0-.06.01-.14.03-.21h.02s3.19,3,3.19,3Z"/>
        <path class="cls-1" d="M10,5.38h-.01s-.01,0-.01,0l-1.68,1.42-3.29-2.92c.11-.36.46-.61.85-.61.16,0,.32.04.46.11l3.68,2Z"/>
        <path class="cls-1" d="M14.92,5.42c-.53,0-.85-.37-.85-.93s.33-.91.85-.91c.4,0,.71.23.78.58h-.24c-.08-.24-.27-.38-.54-.38-.38,0-.61.26-.61.7s.24.72.61.72c.33,0,.56-.21.56-.5v-.03h-.53v-.2h.76v.17c0,.48-.3.76-.79.76h0Z"/>
        <polygon class="cls-1" points="17.16 5.39 16.01 5.39 16.01 3.6 17.16 3.6 17.16 3.81 16.24 3.81 16.24 4.37 17.12 4.37 17.12 4.57 16.24 4.57 16.24 5.19 17.16 5.19 17.16 5.39 17.16 5.39 17.16 5.39 17.16 5.39 17.16 5.39"/>
        <polygon class="cls-1" points="17.95 5.39 17.95 3.81 17.36 3.81 17.36 3.6 18.77 3.6 18.77 3.81 18.18 3.81 18.18 5.39 17.95 5.39 17.95 5.39 17.95 5.39 17.95 5.39 17.95 5.39"/>
        <polygon class="cls-1" points="19.56 5.39 19.56 3.6 19.79 3.6 19.79 5.39 19.56 5.39 19.56 5.39 19.56 5.39 19.56 5.39 19.56 5.39"/>
        <polygon class="cls-1" points="20.15 5.39 20.15 3.6 20.38 3.6 21.41 5 21.42 5 21.42 3.6 21.65 3.6 21.65 5.39 21.42 5.39 20.4 4 20.39 4 20.39 5.39 20.15 5.39 20.15 5.39 20.15 5.39 20.15 5.39 20.15 5.39"/>
        <path class="cls-1" d="M24.2,4.5c0,.56-.33.92-.86.92s-.86-.35-.86-.92.33-.92.86-.92.86.35.86.92h0ZM22.72,4.5c0,.44.24.71.62.71s.62-.27.62-.71-.24-.71-.62-.71-.62.27-.62.71h0Z"/>
        <polygon class="cls-1" points="24.49 5.39 24.49 3.6 24.72 3.6 25.74 5 25.75 5 25.75 3.6 25.98 3.6 25.98 5.39 25.75 5.39 24.73 4 24.72 4 24.72 5.39 24.49 5.39 24.49 5.39 24.49 5.39 24.49 5.39 24.49 5.39"/>
      </g>
    </g>
  </g>
</svg>