<?xml version="1.0" encoding="UTF-8"?>
<svg id="Layer_2" data-name="Layer 2" xmlns="http://www.w3.org/2000/svg" viewBox="0 0 42.52 14.17">
  <defs>
    <style>
      .cls-1 {
        fill: #fff;
      }

      .cls-2 {
        fill: #121212;
      }
    </style>
  </defs>
  <g id="Layer_1-2" data-name="Layer 1">
    <g>
      <rect class="cls-2" x="0" y="0" width="42.52" height="14.17" rx="3.66" ry="3.66"/>
      <g>
        <path class="cls-1" d="M8.07,4.59c-.06-.41.16-.85.41-1.13.27-.3.75-.54,1.13-.56.05.43-.14.87-.4,1.17-.27.3-.71.54-1.15.52h0Z"/>
        <path class="cls-1" d="M11.21,8.27s-.16.53-.53,1.04c-.32.45-.65.89-1.17.9-.51,0-.68-.29-1.27-.29s-.77.28-1.26.29c-.5.02-.89-.48-1.21-.92-.66-.91-1.16-2.56-.48-3.69.33-.55.93-.91,1.58-.92.5,0,.96.32,1.27.32s.87-.4,1.46-.34c.25,0,.95.1,1.41.72-.03.02-.84.47-.83,1.4,0,1.1,1.02,1.47,1.03,1.48h0Z"/>
        <path class="cls-1" d="M15.61,6.33h-.79l-1.29,3.82h.67l.35-1.13h1.3l.37,1.13h.68l-1.29-3.82h0ZM14.66,8.56l.33-1c.09-.31.15-.55.19-.71h.01c.1.38.17.62.2.71l.34,1h-1.08Z"/>
        <path class="cls-1" d="M19.88,7.72c-.23-.26-.51-.39-.85-.39-.43,0-.76.16-.98.5h0l-.03-.43h-.57c.01.31.02.61.02.91v2.96h.65v-1.45c.17.26.44.39.83.39.35,0,.65-.12.9-.36.27-.27.4-.64.4-1.1,0-.42-.11-.76-.35-1.02h-.01ZM19.37,9.47c-.14.17-.32.27-.57.27-.2,0-.37-.06-.5-.21-.12-.14-.19-.3-.19-.51v-.47s0-.11.03-.18c.03-.16.12-.29.25-.39.14-.1.27-.15.43-.15.24,0,.42.09.56.27.12.17.19.39.19.66,0,.29-.07.52-.2.7h0Z"/>
        <path class="cls-1" d="M23.2,7.72c-.23-.26-.51-.39-.85-.39-.43,0-.76.16-.98.5h0l-.03-.43h-.57c.01.31.02.61.02.91v2.96h.65v-1.45c.17.26.44.39.83.39.35,0,.65-.12.89-.36.27-.27.4-.64.4-1.1,0-.42-.11-.76-.35-1.02h0ZM22.69,9.47c-.14.17-.33.27-.57.27-.2,0-.37-.06-.5-.21-.12-.14-.19-.3-.19-.51v-.47s0-.11.03-.18c.05-.16.12-.29.25-.39.14-.1.27-.15.43-.15.24,0,.42.09.56.27.12.17.19.39.19.66,0,.29-.07.52-.2.7h0Z"/>
        <path class="cls-1" d="M27.03,8.42c.17.17.25.4.25.66,0,.32-.12.58-.35.79-.26.23-.62.34-1.09.34-.43,0-.77-.08-1.03-.24l.15-.51c.28.16.59.24.93.24.24,0,.43-.05.57-.15.14-.11.2-.24.2-.41,0-.15-.06-.28-.17-.39-.11-.11-.3-.21-.56-.29-.7-.25-1.06-.62-1.06-1.09,0-.31.12-.57.37-.77.25-.19.58-.3.99-.3.36,0,.67.06.91.18l-.16.5c-.23-.12-.49-.17-.77-.17-.23,0-.41.05-.53.16-.1.1-.16.21-.16.35,0,.15.07.28.18.37.1.09.31.18.58.29.34.13.6.29.76.47h-.01Z"/>
        <path class="cls-1" d="M28.69,7.4h.7v.47h-.7v1.33c0,.34.12.51.37.51.11,0,.2,0,.28-.03l.02.47c-.12.04-.3.06-.5.06-.25,0-.45-.08-.59-.23-.15-.15-.22-.4-.22-.75v-1.38h-.42v-.45h.42v-.51l.64-.18v.68h0v.02h-.01Z"/>
        <path class="cls-1" d="M32.21,7.75c-.26-.27-.6-.4-1.02-.4s-.79.14-1.06.41c-.26.27-.39.62-.39,1.05s.12.75.37,1.02c.25.27.59.4,1.02.4s.79-.14,1.06-.42c.25-.27.39-.62.39-1.04s-.12-.75-.37-1.01h0ZM31.75,9.42c-.14.23-.33.34-.58.34s-.44-.11-.58-.32c-.11-.17-.17-.4-.17-.65s.06-.48.17-.66c.14-.22.33-.32.59-.32s.44.11.58.32c.11.18.17.4.17.65s-.06.47-.18.66h0Z"/>
        <path class="cls-1" d="M34.68,7.35v.58c-.06,0-.12-.01-.2-.01-.23,0-.4.08-.52.24-.1.14-.16.32-.16.54v1.45h-.65v-1.88c0-.31,0-.61-.02-.87h.56l.02.53h.02c.07-.18.17-.32.32-.43.15-.1.3-.15.47-.15h.17Z"/>
        <path class="cls-1" d="M37.56,8.64c0-.35-.09-.63-.26-.87-.22-.29-.53-.44-.94-.44s-.76.15-1.01.44c-.24.28-.36.63-.36,1.04s.12.76.39,1.01c.25.25.61.38,1.06.38.37,0,.69-.05.96-.17l-.1-.42c-.24.09-.5.13-.78.13-.26,0-.47-.06-.62-.19-.18-.14-.27-.36-.28-.63h1.93c.01-.08.02-.17.02-.28h.01ZM35.61,8.48c.02-.18.08-.35.19-.48.14-.16.31-.25.51-.25.23,0,.4.09.51.26.09.13.12.29.12.47h-1.34Z"/>
        <path class="cls-1" d="M14.92,3.11c.67,0,1.06.39,1.06,1.06s-.4,1.07-1.06,1.07h-.79v-2.13h.79ZM14.48,4.96h.41c.48,0,.74-.28.74-.78s-.26-.78-.74-.78h-.41v1.56h0Z"/>
        <path class="cls-1" d="M16.2,4.47c0-.5.31-.8.77-.8s.77.3.77.8-.31.81-.77.81-.77-.3-.77-.81h0ZM17.41,4.47c0-.35-.17-.54-.43-.54s-.43.19-.43.54.17.54.43.54.43-.19.43-.54h0Z"/>
        <polygon class="cls-1" points="19.71 5.24 19.37 5.24 19.02 4.08 19.02 4.08 18.68 5.24 18.32 5.24 17.88 3.69 18.21 3.69 18.51 4.91 18.52 4.91 18.86 3.69 19.18 3.69 19.53 4.91 19.53 4.91 19.83 3.69 20.16 3.69 19.71 5.24 19.71 5.24 19.71 5.24 19.71 5.24 19.71 5.24"/>
        <path class="cls-1" d="M20.37,3.69h.32v.26h0c.09-.17.26-.29.51-.29.36,0,.57.22.57.57v1.01h-.34v-.94c0-.24-.11-.36-.35-.36s-.39.16-.39.4v.91h-.34v-1.56h.02Z"/>
        <polygon class="cls-1" points="22.11 3.11 22.44 3.11 22.44 5.24 22.11 5.24 22.11 3.11 22.11 3.11 22.11 3.11 22.11 3.11 22.11 3.11"/>
        <path class="cls-1" d="M22.72,4.47c0-.5.31-.8.77-.8s.77.3.77.8-.31.81-.77.81-.77-.3-.77-.81h0ZM23.93,4.47c0-.35-.17-.54-.43-.54s-.43.19-.43.54.17.54.43.54.43-.19.43-.54h0Z"/>
        <path class="cls-1" d="M24.46,4.8c0-.27.22-.44.6-.45l.44-.02v-.12c0-.17-.12-.28-.33-.28-.19,0-.32.09-.34.23h-.32c.02-.28.27-.49.67-.49s.65.19.65.51v1.07h-.32v-.26h0c-.09.17-.31.28-.51.28-.32,0-.54-.18-.54-.47h0ZM25.52,4.66v-.12l-.4.02c-.2.01-.32.1-.32.23s.11.23.3.23c.24,0,.42-.15.42-.36h0Z"/>
        <path class="cls-1" d="M26.1,4.47c0-.49.27-.8.68-.8.24,0,.42.11.51.28h0v-.83h.34v2.13h-.33v-.26h0c-.09.17-.28.29-.52.29-.41,0-.68-.31-.68-.8h0ZM26.44,4.47c0,.32.17.53.43.53s.43-.21.43-.53-.17-.53-.43-.53-.43.21-.43.53h0Z"/>
        <path class="cls-1" d="M28.55,4.47c0-.5.31-.8.77-.8s.77.3.77.8-.31.81-.77.81-.77-.3-.77-.81h0ZM29.76,4.47c0-.35-.17-.54-.43-.54s-.43.19-.43.54.17.54.43.54.43-.19.43-.54h0Z"/>
        <path class="cls-1" d="M30.36,3.69h.32v.26h0c.09-.17.26-.29.51-.29.36,0,.57.22.57.57v1.01h-.34v-.94c0-.24-.11-.36-.35-.36s-.39.16-.39.4v.91h-.34v-1.56h.02Z"/>
        <path class="cls-1" d="M33.17,3.32v.37h.31v.25h-.31v.85c0,.13.06.19.2.19h.11v.25s-.11.01-.18.01c-.33,0-.45-.12-.45-.42v-.89h-.24v-.25h.24v-.37h.34-.02Z"/>
        <path class="cls-1" d="M33.77,3.11h.33v.83h0c.09-.18.27-.29.52-.29.36,0,.57.23.57.58v1.01h-.34v-.94c0-.23-.12-.37-.35-.37-.25,0-.4.16-.4.41v.9h-.34v-2.13h.01Z"/>
        <path class="cls-1" d="M36.92,4.78c-.05.28-.33.49-.7.49-.48,0-.77-.31-.77-.8s.3-.81.76-.81.74.3.74.78v.11h-1.16v.02c0,.27.17.45.44.45.19,0,.33-.09.37-.23h.32ZM35.79,4.32h.82c0-.24-.17-.4-.4-.4s-.4.17-.42.4h0Z"/>
      </g>
    </g>
  </g>
</svg>