<?xml version="1.0" encoding="UTF-8"?>
<svg id="Layer_2" data-name="Layer 2" xmlns="http://www.w3.org/2000/svg" viewBox="0 0 42.52 14.17">
  <defs>
    <style>
      .cls-1 {
        fill: #fff;
      }

      .cls-2 {
        fill: #121212;
      }
    </style>
  </defs>
  <g id="Layer_1-2" data-name="Layer 1">
    <g>
      <rect class="cls-2" x="0" y="0" width="42.52" height="14.17" rx="3.66" ry="3.66"/>
      <path class="cls-1" d="M8.5,3.43c-1.96,0-3.54,1.59-3.54,3.54s1.59,3.54,3.54,3.54,3.54-1.59,3.54-3.54c0-1.96-1.59-3.54-3.54-3.54ZM11.14,6.68h-1.03c-.07-.77-.3-1.52-.68-2.19.93.35,1.59,1.2,1.7,2.19ZM7.82,7.57h1.37c-.12.62-.35,1.21-.68,1.74-.34-.53-.57-1.12-.68-1.74ZM7.78,6.68c.08-.73.33-1.42.72-2.04.39.62.64,1.31.72,2.04h-1.44ZM7.57,4.49c-.38.67-.61,1.42-.68,2.19h-1.03c.11-.99.77-1.84,1.7-2.19ZM5.91,7.57h1.01c.1.66.32,1.31.65,1.89-.83-.32-1.45-1.03-1.65-1.89ZM9.44,9.46c.33-.59.55-1.23.65-1.89h1.01c-.2.87-.82,1.58-1.65,1.89h0Z"/>
      <g>
        <path class="cls-1" d="M16.28,8.04h-.38l-.43-1.67-.41,1.67h-.38l-.61-2.12h.37l.44,1.65.4-1.65h.41l.42,1.65.42-1.65h.38l-.62,2.12Z"/>
        <path class="cls-1" d="M19.2,8.04h-.38l-.43-1.67-.41,1.67h-.38l-.61-2.12h.37l.44,1.65.4-1.65h.41l.42,1.65.42-1.65h.38l-.62,2.12Z"/>
        <path class="cls-1" d="M22.12,8.04h-.38l-.43-1.67-.41,1.67h-.38l-.61-2.12h.37l.44,1.65.4-1.65h.41l.42,1.65.42-1.65h.38l-.62,2.12Z"/>
        <path class="cls-1" d="M23.2,7.65c.06,0,.11.02.14.06s.06.09.06.14-.02.1-.06.14-.09.06-.14.06-.1-.02-.14-.06-.06-.09-.06-.14.02-.11.06-.14.09-.06.14-.06Z"/>
        <path class="cls-1" d="M25.77,7.75v.27c-.09.03-.17.05-.22.05-.22,0-.34-.1-.36-.3-.15.21-.39.31-.72.31-.23,0-.41-.06-.53-.19-.11-.11-.16-.25-.16-.42,0-.2.07-.35.21-.46.08-.06.25-.12.5-.18l.69-.16v-.18c0-.21-.16-.32-.47-.32s-.47.12-.49.37h-.34c0-.19.05-.33.14-.43.15-.17.38-.25.71-.25.53,0,.8.19.8.58v1.18c0,.1.05.16.14.16.01,0,.04,0,.09-.02.02,0,.03,0,.03-.01ZM25.18,6.95l-.54.14c-.2.05-.33.1-.4.15-.07.05-.11.12-.11.22,0,.22.14.33.42.33.2,0,.37-.06.5-.19.09-.08.13-.17.13-.27v-.37Z"/>
        <path class="cls-1" d="M27.43,5.92h.36l-.94,2.57c-.11.29-.29.44-.55.44-.12,0-.23-.03-.32-.08l.07-.29c.07.03.14.04.2.04.13,0,.22-.07.28-.21l.13-.34-.72-2.12h.36l.54,1.65.59-1.65Z"/>
        <path class="cls-1" d="M30.05,7.75v.27c-.09.03-.17.05-.22.05-.22,0-.34-.1-.36-.3-.15.21-.39.31-.72.31-.23,0-.41-.06-.53-.19-.11-.11-.17-.25-.17-.42,0-.2.07-.35.21-.46.08-.06.25-.12.5-.18l.69-.16v-.18c0-.21-.16-.32-.47-.32s-.47.12-.49.37h-.34c0-.19.06-.33.14-.43.15-.17.38-.25.71-.25.53,0,.8.19.8.58v1.18c0,.1.05.16.14.16.01,0,.04,0,.09-.02.02,0,.03,0,.03-.01ZM29.46,6.95l-.54.14c-.2.05-.33.1-.4.15-.07.05-.11.12-.11.22,0,.22.14.33.42.33.2,0,.37-.06.5-.19.09-.08.13-.17.13-.27v-.37Z"/>
        <path class="cls-1" d="M30.54,7.65c.06,0,.11.02.14.06s.06.09.06.14-.02.1-.06.14-.09.06-.14.06-.1-.02-.14-.06-.06-.09-.06-.14.02-.11.06-.14.09-.06.14-.06Z"/>
        <path class="cls-1" d="M33.11,7.75v.27c-.09.03-.17.05-.22.05-.22,0-.34-.1-.36-.3-.15.21-.39.31-.72.31-.23,0-.41-.06-.53-.19-.11-.11-.16-.25-.16-.42,0-.2.07-.35.21-.46.08-.06.25-.12.5-.18l.69-.16v-.18c0-.21-.16-.32-.47-.32s-.47.12-.49.37h-.34c0-.19.05-.33.14-.43.15-.17.38-.25.71-.25.53,0,.8.19.8.58v1.18c0,.1.05.16.14.16.01,0,.04,0,.09-.02.02,0,.03,0,.03-.01ZM32.52,6.95l-.54.14c-.2.05-.33.1-.4.15-.07.05-.11.12-.11.22,0,.22.14.33.42.33.2,0,.37-.06.5-.19.09-.08.13-.17.13-.27v-.37Z"/>
        <path class="cls-1" d="M33.41,8.92v-3h.31v.33c.16-.25.38-.37.68-.37s.53.12.69.35c.14.2.21.46.21.79,0,.35-.09.62-.28.82-.16.17-.37.26-.63.26s-.48-.09-.65-.28v1.12h-.34ZM34.35,6.19c-.18,0-.32.07-.43.22-.11.15-.16.34-.16.59s.06.45.19.59c.1.12.24.18.41.18.19,0,.34-.07.45-.21.11-.14.17-.33.17-.56,0-.26-.06-.46-.19-.61-.11-.13-.25-.19-.42-.19Z"/>
        <path class="cls-1" d="M35.66,8.92v-3h.31v.33c.16-.25.38-.37.68-.37s.53.12.69.35c.14.2.21.46.21.79,0,.35-.09.62-.28.82-.16.17-.37.26-.63.26s-.48-.09-.65-.28v1.12h-.34ZM36.59,6.19c-.18,0-.32.07-.43.22-.11.15-.16.34-.16.59s.06.45.19.59c.1.12.24.18.41.18.19,0,.34-.07.45-.21.11-.14.17-.33.17-.56,0-.26-.06-.46-.19-.61-.11-.13-.25-.19-.42-.19Z"/>
      </g>
    </g>
  </g>
</svg>